<svg width="24" height="24" viewBox="0 0 24 24" fill="none" xmlns="http://www.w3.org/2000/svg">
<path d="M12.4349 13.6597C10.4056 14.2567 8.1668 14.9069 5.50742 14.1346C5.61762 11.4576 6.96269 9.37144 10.0259 4.68625L10.0263 4.68566C10.4831 3.98702 10.9766 3.23223 11.5072 2.41149C11.7741 2.81087 12.0302 3.19355 12.276 3.56069L12.2763 3.56112C15.8791 8.94344 17.1926 10.9305 17.4503 13.4592C16.8382 13.1232 16.1901 13.0013 15.5153 13.0162C14.5499 13.0375 13.5179 13.3411 12.4773 13.6473L12.4349 13.6597ZM15.5374 14.0159C16.2572 14 16.8934 14.1755 17.4963 14.7118C17.3848 17.9274 14.7428 20.5 11.5 20.5C8.41601 20.5 5.87546 18.1733 5.53804 15.1794C8.35782 15.9015 10.74 15.2007 12.6879 14.6277L12.7171 14.6191C13.8092 14.2978 14.7185 14.034 15.5374 14.0159Z" stroke="#0F5E9C"/>
<path d="M15.5374 14.2329C16.2572 14.217 16.8934 14.3925 17.4963 14.9288C17.3848 18.1444 14.7428 20.717 11.5 20.717C8.41601 20.717 5.87546 18.3903 5.53804 15.3964C8.35782 16.1186 10.74 15.4178 12.6879 14.8447L12.7171 14.8361C13.8092 14.5148 14.7185 14.251 15.5374 14.2329Z" fill="#0F5E9C" stroke="#0F5E9C"/>
</svg>
